# xmcd CD database file
#
# Track frame offsets:
#	150
#	17262
#	23281
#	23776
#	33765
#	40940
#	48933
#	58351
#	68842
#
# Disc length: 1111 seconds
#
# Revision: 2
# Processed by: cddbd v1.5.2PL0 Copyright (c) Steve Scherf et al.
# Submitted via: CDex 1.70beta2
#
DISCID=61045509
DTITLE=Johan Dalgas Frisch - / Aves brasileiras
DYEAR=2004
DGENRE=New Age
TTITLE0=Sinfonia
TTITLE1=o Principe
TTITLE2=vem chegando
TTITLE3=a noite 1
TTITLE4=a noite 2
TTITLE5=a noite 3
TTITLE6=a magrugada 1
TTITLE7=a madrugada 2
TTITLE8=o dia 1
EXTD=YEAR: 2004
EXTT0=
EXTT1=
EXTT2=
EXTT3=
EXTT4=
EXTT5=
EXTT6=
EXTT7=
EXTT8=
PLAYORDER=
